<?xml version="1.0" encoding="utf-8"?>
<!-- Generator: Adobe Illustrator 19.2.1, SVG Export Plug-In . SVG Version: 6.00 Build 0)  -->
<svg version="1.1" id="layer" xmlns="http://www.w3.org/2000/svg" xmlns:xlink="http://www.w3.org/1999/xlink" x="0px" y="0px"
	 viewBox="0 0 652 652" style="enable-background:new 0 0 652 652;" xml:space="preserve">
<style type="text/css">
	.st0{fill:#91001A;}
</style>
<g>
	<path class="st0" d="M616.8,269.6L616.8,269.6l0-0.2c-0.1-1.5-0.1-3.3-0.1-5.3v-0.4l-0.4,0.1c-0.5,0.1-3,0.1-5.4,0.1h-7.4
		c-1.5,0-2.9,0-4.7-0.1l-0.1,0l-0.1,0c-0.3,0.2-0.4,0.6-0.4,0.8c0,0.4,0.1,0.6,0.3,0.8l0.8,0.1c2,0.2,2.1,0.5,2.1,4.8v14.5
		c0,4.3-0.1,4.5-2.1,4.7l-1.1,0.1l-0.1,0.1c-0.2,0.2-0.3,0.6-0.2,0.9c0.1,0.3,0.2,0.5,0.4,0.6l0.1,0h0.1c1.9-0.1,3.2-0.1,5-0.1
		c1.6,0,3,0,5.3,0.1h0.1l0.1,0c0.3-0.1,0.4-0.5,0.4-0.8c0-0.3-0.1-0.6-0.3-0.8l-1.5-0.2c-2.1-0.2-2.2-0.4-2.2-4.7v-5.6
		c0-0.8,0-0.8,1-0.8h2.7c1.4,0,2.5,0,3,0.2c0.6,0.2,0.9,0.6,1.1,1.3l0.4,1.7l0.1,0.1c0.4,0.3,1.3,0.3,1.5-0.1l0.1-0.1v-0.1
		c0-0.4,0-1-0.1-1.6c0-0.7-0.1-1.6-0.1-2.4c0-0.8,0-1.7,0.1-2.4c0-0.6,0.1-1.2,0.1-1.6v-0.1l-0.1-0.1c-0.2-0.3-0.6-0.3-0.8-0.3
		c-0.3,0-0.6,0.1-0.8,0.3l-0.4,1.7c-0.2,1-0.5,1.1-0.8,1.2c-0.4,0.1-1.7,0.2-3.3,0.2h-2.7c-1,0-1,0-1-0.8v-8.5c0-1.3,0-1.3,0.9-1.3
		h2.5c1.7,0,3,0,3.8,0.2c1.7,0.5,2.2,1.6,2.6,3.6l0,0.1l0.1,0.1c0.2,0.1,0.4,0.2,0.6,0.2C616.3,270,616.7,269.9,616.8,269.6
		 M589.8,277.4c0-6.8-4.5-14.1-14.3-14.1c-8.4,0-14.7,6.2-14.7,14.5c0,6.9,5,14,14.7,14C583.6,291.8,589.8,285.6,589.8,277.4
		 M585.1,278.7c0,8.3-4.9,11.3-9.1,11.3c-8.3,0-10.5-8.4-10.5-13.4c0-8.4,5-11.4,9.3-11.4C582.4,265.2,585.1,272.4,585.1,278.7
		 M552.2,347.4c0,17.4,13,32.8,34.4,32.8c18.7,0,33.6-14.2,33.6-33.7c0-17-11.2-33.2-33.6-33.2C566.7,313.2,552.2,328,552.2,347.4
		 M561.9,344.3c0-21.2,13.1-28,23.1-28c18.5,0,25.5,17.2,25.5,33.2c0,19.1-11,27.8-22.6,27.8C568.8,377.1,561.9,358.6,561.9,344.3
		 M540.5,265.4c0.2-0.2,0.3-0.5,0.3-0.8c0-0.3-0.2-0.6-0.4-0.7l-0.1-0.1l-0.1,0c-2.9,0.2-4.6,0.2-7.6,0l-0.1,0l-0.1,0
		c-0.2,0.1-0.4,0.3-0.4,0.6c-0.1,0.3,0.1,0.7,0.3,0.9l0.1,0.1l0.8,0.1c0.8,0.1,1.3,0.3,1.4,0.4c-0.1,0.6-1.5,3.2-2.4,4.8L532,271
		c-1,1.9-2.1,3.9-3.5,6.3c-1.1-1.9-2.1-4-3.1-6.1c-0.4-0.8-0.8-1.6-1.2-2.4c-0.3-0.6-1.2-2.6-1.2-3c0-0.1,0.2-0.2,1.4-0.4l0.6-0.1
		l0.1-0.1c0.2-0.2,0.3-0.6,0.2-1c-0.1-0.3-0.2-0.5-0.5-0.6l-0.1,0l-0.1,0c-1,0.1-2.4,0.1-4.3,0.1c-1.9,0-3.3,0-4.6-0.1l-0.1,0
		l-0.1,0c-0.2,0.1-0.3,0.3-0.4,0.6c-0.1,0.3,0,0.7,0.2,0.9l0.1,0.1l1.2,0.2c1.1,0.2,1.6,0.3,3,2.9l4.8,9.3c1.1,2.2,1.3,2.6,1.3,4.9
		v2.1c0,4.4-0.1,4.6-2.1,4.8l-1.4,0.1l-0.1,0.1c-0.2,0.2-0.3,0.6-0.2,0.9c0.1,0.3,0.2,0.5,0.4,0.6l0.1,0h0.1
		c2.2-0.1,3.6-0.1,5.3-0.1c1.6,0,3.1,0,5.5,0.1h0.1l0.1,0c0.2-0.1,0.3-0.3,0.4-0.6c0-0.3,0-0.6-0.2-0.9l-0.1-0.1l-1.6-0.1
		c-1.9-0.1-2.1-0.4-2.1-4.8v-2.1c0-3,0.1-3.3,1.8-6.4l2.5-4.4c0.2-0.4,0.5-0.8,0.7-1.1c1.6-2.8,2.7-4.8,4.4-5.1L540.5,265.4
		L540.5,265.4z M526.4,314.7c-1.6-0.4-6.8-1.4-12.3-1.4c-14.6,0-24.2,4.5-30.7,11.3c-6,6.4-8.7,14.7-8.7,22.9c0,8.5,3.1,16.2,8.9,22
		c7.4,7.5,18,10.7,29.5,10.7c5.2,0,12.2-1.2,17.3-2.5c1.8-0.5,3.6-0.9,4.7-0.9c0.4-0.3,0.4-0.9,0.1-1.2c-1.7-0.7-2.3-3-2.3-6.9v-5.4
		c0-4.9,0.1-7.6,4.2-8.1l1.5-0.2c0.7-0.6,0.6-2-0.1-2.4c-3.2,0.2-6.5,0.3-10.3,0.3c-5.7,0-11-0.1-13.8-0.3c-0.7,0.3-0.8,2,0,2.4
		l4.3,0.5c6,0.7,6.3,1.3,6.3,9.4v3.9c0,3.1-0.5,4.8-1,5.5c-1.1,1.6-4.6,2.9-10.6,2.9c-19.4,0-29-14.6-29-33.2
		c0-14.5,8.2-27.9,27-27.9c9.9,0,17.1,3.3,19.8,13.7c0.6,0.6,2.3,0.5,2.6-0.3c-0.9-5.8-1.4-10.8-1.4-14
		C531.2,315.7,528.2,315.1,526.4,314.7 M509.9,263.3l0-0.1l-0.1-0.1c-0.2-0.3-0.6-0.3-0.7-0.3c-0.1,0-0.2,0-0.4,0.1l-0.1,0l-0.1,0.1
		c-0.5,0.9-0.7,1-2.9,1h-16.7c-1.8,0-2.6-0.1-2.8-1l0-0.1l-0.1-0.1c-0.1-0.1-0.3-0.2-0.6-0.2c-0.1,0-0.4,0-0.6,0.1l-0.1,0.1l0,0.1
		c-0.3,1.6-0.9,4.2-1.5,6l0,0.1l0.1,0.1c0.2,0.5,1.1,0.7,1.5,0.4l0.1,0l0-0.1c0.4-0.9,0.8-1.8,1.7-2.7c0.9-0.8,2.9-0.9,4.7-0.9h2.2
		c0.9,0,0.9,0,0.9,1v18c0,4.4-0.3,4.6-2.2,4.7l-1.5,0.1l-0.1,0c-0.2,0.1-0.4,0.4-0.4,0.8c0,0.3,0.1,0.6,0.4,0.7l0.1,0h0.1
		c2.5-0.1,4-0.1,5.6-0.1c1.6,0,2.9,0,5.3,0.1h0.1l0.1,0c0.3-0.2,0.4-0.6,0.4-0.8c0-0.3-0.1-0.6-0.3-0.8l-1.4-0.2
		c-2-0.2-2.1-0.4-2.1-4.7v-18.1c0-0.4,0-0.8,0.1-0.9c0.1-0.1,0.5-0.1,0.8-0.1h2.9c2.2,0,3.6,0.3,4.5,1c0.4,0.3,0.7,1.3,0.9,2.7
		l0,0.1l0.1,0.1c0.1,0.2,0.4,0.3,0.7,0.3c0.4,0,0.7-0.2,0.8-0.4l0-0.1l0-0.1C509.2,268.2,509.5,264.9,509.9,263.3 M473.2,284.7
		v-14.3c0-4.4,0.1-4.7,2.2-4.8l1.1-0.1l0.1,0c0.2-0.1,0.3-0.4,0.3-0.8c0-0.1-0.1-0.6-0.4-0.8l-0.1,0l-0.1,0c-1.9,0.1-3.3,0.1-5,0.1
		c-1.7,0-3.1,0-5.1-0.1l-0.1,0l-0.1,0c-0.3,0.2-0.4,0.6-0.4,0.8c0,0.3,0.1,0.6,0.3,0.8l0.1,0l1.1,0.1c2.1,0.2,2.2,0.4,2.2,4.8v14.3
		c0,4.3-0.1,4.6-2.2,4.8l-1.1,0.1l-0.1,0.1c-0.2,0.2-0.3,0.6-0.2,0.9c0,0.3,0.2,0.5,0.4,0.6l0.1,0h0.1c2-0.1,3.4-0.1,5.1-0.1
		c1.6,0,2.9,0,5,0.1h0.1l0.1,0c0.3-0.2,0.4-0.6,0.4-0.8c0-0.4-0.1-0.6-0.3-0.8l-1.1-0.2C473.3,289.3,473.2,289.1,473.2,284.7
		 M466.5,376.2c-4.2-0.5-5.4-1.9-8.2-10.3L445,327c-1.5-4.3-3-8.7-4.3-13c-0.2-0.7-0.9-0.9-1.4-0.9c-1.1,1.3-2.7,3-5,3.7
		c0.3,1.5-0.3,3.4-1.6,6.9l-9.9,26.1c-4.1,10.8-6.8,17.1-8.5,21.6c-1.4,3.5-3.5,4.5-5.8,4.7l-3.2,0.3c-0.6,0.5-0.4,2,0.2,2.4
		c2.6-0.1,6.1-0.3,9.3-0.3c4.5,0.1,7.5,0.1,10.1,0.3c0.9-0.4,0.9-1.9,0.2-2.4l-3.2-0.3c-2.3-0.2-2.8-0.8-2.8-1.9
		c0-1.1,0.7-3.7,2.1-8l3.4-10.2c0.7-2,1.3-2.3,3.7-2.3h14.6c2.9,0,3.3,0.3,4,2.4l4.3,13.1c0.8,2.3,1.3,4.1,1.3,5.1
		c0,1-1.4,1.5-3.4,1.7l-2.8,0.3c-0.7,0.5-0.6,2,0.2,2.4c2.8-0.1,6.5-0.3,11.1-0.3c4.4,0,7.7,0.1,11.7,0.3c0.5-0.4,0.7-1.9,0-2.4
		L466.5,376.2z M441.6,349.9h-11.9c-2.7,0-2.8-0.1-2-2.3l6.1-16.8c1.1-2.9,2-5.2,2.3-5.7h0.2c0.6,1.2,1.4,3.8,2.2,6.1l5.2,15.8
		C444.6,349.5,444.4,349.9,441.6,349.9 M445.5,269.3c0-1.6,0.6-4.2,4.5-4.2c3.6,0,4.6,2.3,5.2,4.3l0.1,0.1c0.1,0.2,0.3,0.2,0.6,0.2
		c0.3,0,0.7-0.1,0.9-0.4l0.1-0.1v-0.1c0-1.6-0.3-3.9-0.7-5l-0.1-0.2h-0.2c-0.3,0-0.8-0.1-1.3-0.2c-1-0.3-2.5-0.5-3.8-0.5
		c-5.1,0-8.5,2.9-8.5,7.2c0,3.7,2.8,6.1,4.5,7.2l3.8,2.5c2.8,1.8,3.2,3.6,3.2,5.4c0,2.2-1.5,4.3-4.7,4.3c-4.1,0-5.9-3.1-6.6-5.8
		l0-0.1c-0.1-0.2-0.3-0.3-0.6-0.3c-0.3,0-0.7,0.1-0.9,0.4l-0.1,0.1v0.1c0.1,1.8,0.6,4.8,1.1,5.8l0,0.1l0.1,0c0.8,0.5,3,1.5,6.4,1.5
		c5.3,0,8.9-3.1,8.9-7.8c0-3.2-1.7-5.8-5.2-8l-3.2-2C447.6,273.3,445.5,271.6,445.5,269.3 M435.4,291.3c0.2-0.1,0.3-0.4,0.2-0.6
		c0-0.2-0.2-0.4-0.4-0.5l-0.1,0c-1-0.1-1.9-0.5-2.6-1.1c-2.8-2.3-5-5.7-8-10.6c-0.2-0.3-0.2-0.5-0.2-0.6c1.3-0.6,5.1-2.5,5.1-7
		c0-3.4-1.9-5.1-3.5-5.9c-2-1.1-4.6-1.2-6.9-1.2c-3.7,0-6.6,0.1-9,0.3l-0.1,0c-0.2,0.1-0.4,0.4-0.4,0.7c0,0.3,0.1,0.7,0.3,0.8l0.1,0
		l1.4,0.2c1.3,0.2,1.5,0.4,1.5,4.4v14.5c0,4.3-0.1,4.5-2.1,4.7l-1.1,0.1l-0.1,0.1c-0.2,0.3-0.3,0.7-0.2,0.9c0.1,0.3,0.2,0.5,0.4,0.6
		l0.1,0h0.1c1.8-0.1,3.3-0.1,5-0.1c1.7,0,3.1,0,4.8,0.1h0.1l0.1,0c0.3-0.2,0.4-0.5,0.4-0.7c0-0.4-0.1-0.7-0.3-0.8l-0.1-0.1l-0.9-0.1
		c-2.1-0.3-2.2-0.5-2.2-4.7v-5.1c0-0.6,0-0.6,1.6-0.6c1.5,0,2.1,0.4,2.6,1.2c0.6,0.9,1.3,2,2,3.1c0.7,1.1,1.4,2.2,1.9,3
		c2.8,3.9,4.9,5.2,8.6,5.2C434.2,291.6,434.9,291.5,435.4,291.3L435.4,291.3z M423.2,276.3c-1.1,0.9-2.7,1-4,1
		c-1.8,0-2.4-0.1-2.6-0.1c0-0.2,0-0.6,0-1.1v-9.4c0-0.9,0-1,2.3-1c4.5,0,6.1,3.2,6.1,5.9C425.1,273.8,424.5,275.3,423.2,276.3
		 M402.4,285.4L402.4,285.4l0-0.2c-0.2-0.4-0.6-0.6-0.9-0.6c-0.2,0-0.4,0.1-0.5,0.2l-0.1,0.1c-1.2,2.3-2.2,3.5-2.7,3.8
		c-0.9,0.4-2.1,0.6-5,0.6c-3.4,0-4.2-0.4-4.7-0.8c-0.6-0.6-0.7-1.9-0.7-4v-5.7c0-0.8,0-0.8,1-0.8h2.3c1.4,0,2.5,0,3,0.2
		c0.6,0.1,0.9,0.5,1,1.3l0.4,1.6l0.1,0.1c0.2,0.2,0.4,0.3,0.8,0.3c0.4,0,0.7-0.1,0.8-0.4l0-0.1V281c0-0.4,0-0.9-0.1-1.5
		c0-0.7-0.1-1.6-0.1-2.4c0-0.8,0.1-1.7,0.1-2.5c0-0.6,0.1-1.2,0.1-1.6v-0.1l0-0.1c-0.1-0.2-0.4-0.4-0.8-0.4c-0.3,0-0.6,0.1-0.8,0.3
		l-0.4,1.8c-0.2,0.9-0.4,1.1-0.8,1.2c-0.4,0.1-1.6,0.2-3.3,0.2h-2.3c-1,0-1,0-1-0.8v-8.1c0-1.3,0-1.3,0.9-1.3h2.9c1.7,0,3,0,3.8,0.2
		c1.8,0.5,2.2,1.6,2.8,3.4l0.1,0.2l0.1,0.1c0.1,0.2,0.4,0.3,0.6,0.3c0.3,0,0.7-0.1,0.9-0.4l0.1-0.1l-0.1-0.6c-0.2-2.3-0.4-4.3-0.6-5
		l-0.1-0.3l-0.3,0.1c-0.5,0.1-2.9,0.1-5.4,0.1h-7.6c-1.6,0-2.9,0-4.7-0.1l-0.1,0l-0.1,0c-0.3,0.2-0.4,0.6-0.4,0.8
		c0,0.3,0.1,0.6,0.3,0.8l0.8,0.1c2.1,0.2,2.2,0.5,2.2,4.8v14.5c0,4.4-0.2,4.6-2.2,4.7l-1.4,0.1l-0.1,0.1c-0.2,0.2-0.3,0.6-0.2,0.9
		c0.1,0.3,0.2,0.5,0.4,0.6l0.1,0h0.1c2.3-0.1,3.7-0.1,5.5-0.1h3.6c3.5,0,7,0,10.8,0.1l0.2,0l0.1-0.2
		C401.1,290,402.1,286.8,402.4,285.4 M374.8,265.4c0.2-0.2,0.2-0.6,0.2-0.9c0-0.3-0.2-0.5-0.4-0.6l-0.1,0l-0.1,0
		c-1.4,0.1-2.6,0.1-3.9,0.1c-1.6,0-3.1,0-4.2-0.1l-0.1,0l-0.1,0c-0.2,0.1-0.4,0.4-0.4,0.7c0,0.3,0.1,0.6,0.3,0.8l0.1,0.1l0.8,0.1
		c1.4,0.2,1.5,0.5,1.5,0.5c0,0.3,0,0.7-0.3,1.5c-0.7,1.8-2.6,6.4-3.7,9c-0.3,0.7-0.7,1.6-1.1,2.6c-0.8,1.8-1.7,4-2.5,5.7
		c-1.9-4.4-3.7-8.8-5.4-13.3c-1.2-2.9-1.9-5-2-5.5c0.1-0.1,0.4-0.3,1.6-0.5l0.7-0.1l0.1-0.1c0.2-0.2,0.3-0.5,0.3-0.8
		c0-0.3-0.2-0.6-0.4-0.7l-0.1,0l-0.1,0c-1.8,0.1-3.2,0.1-4.9,0.1c-1.7,0-3,0-4.2-0.1l-0.1,0l-0.1,0.1c-0.2,0.1-0.4,0.4-0.4,0.7
		c0,0.3,0.1,0.6,0.3,0.8l0.1,0.1l0.8,0.1c1.6,0.2,2.1,0.9,3,3.1l7.1,17.5c0.8,2.1,1.5,3.9,1.8,5.3l0,0.2l0.1,0.1
		c0.2,0.1,0.5,0.1,0.7,0.1c0.2,0,0.5-0.1,0.6-0.2l0.1-0.1l0-0.1c0.7-2.2,2.6-6.9,4.2-10.5l2.2-5c1.9-4.2,3.4-7.4,4.5-9.2
		c0.5-0.8,1.1-1.2,1.9-1.3L374.8,265.4L374.8,265.4z M348.5,321.4c-7.4,5.7-12.2,14.9-12.2,25.6c0,12.5,6,21.3,13.7,26.6
		c7.1,4.7,15.4,6.5,24.1,6.5c6.2,0,13.2-1.5,15.3-2.2c1.1-0.4,2.2-0.8,3.4-1c1.5-1.8,4-8.2,4.6-13.2c-0.4-0.7-1.8-0.9-2.5-0.4
		c-2.2,5.7-7.7,13.8-20.2,13.8c-15.9,0-28.7-11.2-28.7-31.5c0-20,12.6-29.4,27.4-29.4c14,0,18.4,7.5,19.8,14.1
		c0.7,0.6,2.1,0.5,2.6-0.2c-0.8-5.9-1.3-12-1.4-14.2c-0.9,0.1-1.6-0.1-2.7-0.4c-4.6-1.3-11.9-2.3-17.1-2.3
		C364.5,313.2,355.5,315.9,348.5,321.4 M336.1,284.7v-14.3c0-4.4,0.1-4.7,2.2-4.8l1.1-0.1l0.1,0c0.2-0.1,0.3-0.4,0.3-0.8
		c0-0.1-0.1-0.6-0.4-0.8l-0.1,0l-0.1,0c-1.9,0.1-3.3,0.1-5,0.1c-1.7,0-3.1,0-5.1-0.1l-0.1,0l-0.1,0c-0.3,0.2-0.4,0.6-0.4,0.8
		c0,0.4,0.1,0.6,0.3,0.8l0.1,0l1.1,0.1c2,0.2,2.2,0.5,2.2,4.8v14.3c0,4.3-0.1,4.6-2.2,4.8l-1.1,0.1l-0.1,0.1
		c-0.2,0.2-0.3,0.6-0.2,0.9c0,0.3,0.2,0.5,0.4,0.6l0.1,0h0.1c2-0.1,3.4-0.1,5.1-0.1c1.6,0,3,0,5,0.1h0.1l0.1,0
		c0.3-0.2,0.4-0.6,0.4-0.8c0-0.3-0.1-0.6-0.3-0.8l-1.1-0.2C336.2,289.3,336.1,289.1,336.1,284.7 M315.9,363.9v-34.4
		c0-10.2,0.2-11.9,5.9-12.4l2.4-0.2c0.6-0.4,0.4-2.1-0.2-2.4c-4.8,0.2-8.1,0.3-12,0.3c-4.1,0-7.3-0.1-12.2-0.3
		c-0.6,0.3-0.8,2-0.2,2.4l2.4,0.2c5.7,0.5,5.9,2.1,5.9,12.4v34.4c0,10.2-0.2,11.6-5.9,12.3l-2.4,0.3c-0.6,0.6-0.4,2.1,0.2,2.4
		c4.8-0.2,8.1-0.3,12.2-0.3c3.9,0,7.2,0.1,12,0.3c0.6-0.3,0.8-2,0.2-2.4l-2.4-0.3C316.1,375.5,315.9,374.1,315.9,363.9 M320.8,265.4
		c0.2-0.2,0.3-0.5,0.3-0.8c0-0.3-0.2-0.5-0.4-0.7l-0.1-0.1l-0.1,0c-1.3,0.1-2.4,0.1-4.1,0.1c-1.4,0-2.7,0-4.7-0.1l-0.1,0l-0.1,0
		c-0.2,0.1-0.4,0.3-0.5,0.6c-0.1,0.4,0,0.7,0.3,0.9l0.1,0.1l0.8,0.1c1.4,0.2,2.1,0.4,2.3,0.7c0.5,0.8,0.8,3.7,0.8,8.2v8.6
		c0,0.4,0,0.8,0,1.1c-1.4-1.4-2.9-3.1-4.7-5.1l-5.6-6.3c-4-4.5-6.3-7.4-6.8-8.7l-0.1-0.2l-0.2,0c-0.5,0.1-1.1,0.1-1.8,0.1
		c-0.7,0-2.8,0-4.5-0.1l-0.1,0l-0.1,0c-0.2,0.1-0.4,0.3-0.4,0.6c-0.1,0.3,0,0.7,0.2,0.9l0.1,0.1l0.8,0.1c1.1,0.1,1.9,0.4,2.3,0.9
		c0.7,0.8,0.8,1.6,0.8,2.7v12c0,1.9,0,6.5-0.5,7.8c-0.1,0.2-0.4,0.5-1.5,0.6l-1.2,0.1l-0.1,0.1c-0.2,0.2-0.3,0.5-0.2,0.8
		c0,0.3,0.2,0.6,0.4,0.7l0.1,0.1l0.1,0c1.4-0.1,2.5-0.1,4.2-0.1c1.4,0,2.7,0,4.7,0.1l0.1,0l0.1-0.1c0.2-0.1,0.3-0.3,0.4-0.6
		c0-0.3,0-0.6-0.2-0.8l-0.1-0.1l-1.4-0.1c-1-0.1-1.6-0.3-1.8-0.6c-0.4-0.8-0.7-3.8-0.7-8.2v-8.8c0-0.7,0-1.5,0.1-2
		c0.6,0.7,1.7,2,2.7,3.1c0.7,0.8,1.3,1.5,1.7,1.9l9.3,10.6c3.1,3.5,4.6,5.3,5.1,6.1l0.1,0.1h0.2c0.5,0,0.9-0.2,1.1-0.7l0-0.1l0-0.1
		c-0.1-0.5-0.1-2.1-0.1-7l0-10.2c0-2.1,0-6.4,0.6-7.6c0.1-0.1,0.5-0.4,2-0.7L320.8,265.4L320.8,265.4z M284.7,265.3
		c0.2-0.2,0.3-0.6,0.2-0.8c0-0.3-0.2-0.5-0.4-0.6l-0.1-0.1l-0.1,0c-1.4,0.1-2.5,0.1-4.2,0.1c-1.5,0-3,0-4.6-0.1l-0.1,0l-0.1,0.1
		c-0.2,0.1-0.3,0.4-0.4,0.6c0,0.3,0,0.6,0.2,0.8l0.1,0.1l1.1,0.1c0.9,0.1,1.6,0.3,1.8,0.7c0.5,0.8,0.7,3.7,0.7,8.2v4.6
		c0,4.7-1.3,10.4-7.7,10.4c-5.4,0-7.9-3.3-7.9-10.4v-8.7c0-4.3,0.1-4.6,2.1-4.8l1-0.1l0.1,0c0.2-0.1,0.3-0.4,0.3-0.7
		c0-0.3-0.1-0.6-0.4-0.8l-0.1,0l-0.1,0c-1.9,0.1-3.3,0.1-4.9,0.1c-1.7,0-3.1,0-5-0.1l-0.1,0l-0.1,0c-0.3,0.1-0.4,0.5-0.4,0.8
		c0,0.3,0.1,0.6,0.3,0.7l0.1,0l1.1,0.1c2,0.2,2.1,0.5,2.1,4.8v9.5c0,4.9,1,7.9,3.3,9.7c1.8,1.5,4.4,2.3,7.7,2.3c3.2,0,6.2-1.2,7.9-3
		c1.9-2.1,2.9-5.3,2.9-9.8v-4.6c0-2,0-6.8,0.5-8.1c0.2-0.4,0.9-0.7,1.8-0.8l1.1-0.1L284.7,265.3z M238.4,316.9
		c0.6-0.4,0.4-2.1-0.2-2.4c-4.2,0.2-7.4,0.3-11.2,0.3c-4.2,0-7.4-0.2-12.2-0.3c-0.6,0.3-0.8,2-0.2,2.4l2.5,0.2c5,0.4,5.7,2,5.7,12.2
		v34.8c0,10.2-0.2,11.1-5.6,12.1l-1.6,0.3c-0.6,0.6-0.4,2.1,0.2,2.4c3.8-0.1,7.1-0.3,11.2-0.3c3.8,0,7.1,0.1,12.3,0.3
		c0.6-0.3,0.8-2,0.2-2.4l-2.8-0.3c-5.4-0.6-5.9-1.9-5.9-12.1v-13.6c0-2.9,0.2-3.1,4.8-3.1h27.7c4.6,0,4.8,0.2,4.8,3.1v13.6
		c0,10.2,0,11.1-5.9,12.1l-1.8,0.3c-0.6,0.6-0.4,2.1,0.2,2.4c4.3-0.2,7.7-0.3,11.7-0.3c3.8,0,7.1,0.1,11.7,0.3
		c0.6-0.3,0.8-2,0.2-2.4l-2.3-0.3c-5.6-0.7-5.8-1.9-5.8-12.1v-34.8c0-10.2,0.2-11.6,5.8-12.2l2-0.2c0.6-0.4,0.4-2.1-0.2-2.4
		c-4.4,0.2-7.6,0.3-11.4,0.3c-4,0-7.3-0.1-11.7-0.3c-0.6,0.3-0.8,2-0.2,2.4l1.8,0.2c5.7,0.6,5.9,2,5.9,12.2v11.1
		c0,3-0.2,3.1-4.8,3.1h-27.7c-4.6,0-4.8-0.1-4.8-3.1v-11.1c0-10.2,0.2-11.6,5.8-12.2L238.4,316.9z M234.5,285.4L234.5,285.4l0-0.2
		c-0.2-0.4-0.6-0.6-1-0.6c-0.2,0-0.4,0.1-0.5,0.2l-0.1,0.1c-1.2,2.3-2.2,3.5-2.7,3.8c-0.9,0.4-2.1,0.6-5,0.6c-3.4,0-4.2-0.4-4.6-0.8
		c-0.6-0.6-0.7-1.9-0.7-4v-5.7c0-0.8,0-0.8,1-0.8h2.3c1.4,0,2.5,0,3,0.2c0.6,0.1,0.8,0.5,1,1.3l0.4,1.6l0.1,0.1
		c0.1,0.2,0.4,0.3,0.8,0.3c0.4,0,0.7-0.1,0.8-0.4l0-0.1V281c0-0.4,0-0.9-0.1-1.5c0-0.7-0.1-1.6-0.1-2.4c0-0.8,0.1-1.7,0.1-2.5
		c0-0.6,0.1-1.2,0.1-1.6v-0.1l0-0.1c-0.1-0.2-0.4-0.4-0.8-0.4c-0.3,0-0.6,0.1-0.7,0.3l-0.4,1.8c-0.2,0.9-0.4,1.1-0.8,1.2
		c-0.4,0.1-1.6,0.2-3.3,0.2h-2.3c-1,0-1,0-1-0.8v-8.1c0-1.3,0-1.3,0.9-1.3h2.9c1.7,0,3,0,3.8,0.2c1.8,0.5,2.2,1.6,2.8,3.4l0.1,0.2
		l0.1,0.1c0.1,0.2,0.4,0.3,0.7,0.3c0.3,0,0.7-0.1,0.8-0.4l0.1-0.1l-0.1-0.6c-0.2-2.3-0.4-4.3-0.6-5l-0.1-0.3l-0.3,0.1
		c-0.5,0.1-3,0.1-5.4,0.1H218c-1.5,0-2.9,0-4.7-0.1l-0.1,0l-0.1,0c-0.3,0.2-0.4,0.6-0.4,0.8c0,0.3,0.1,0.6,0.3,0.8l0.8,0.1
		c2.1,0.2,2.2,0.5,2.2,4.8v14.5c0,4.4-0.2,4.6-2.2,4.7l-1.4,0.1l-0.1,0.1c-0.2,0.2-0.3,0.6-0.2,0.9c0,0.3,0.2,0.5,0.4,0.6l0.1,0h0.1
		c2.3-0.1,3.7-0.1,5.5-0.1h3.6c3.5,0,7,0,10.8,0.1l0.2,0l0.1-0.2C233.2,290,234.2,286.8,234.5,285.4 M200.8,284.8v-14.5
		c0-4.3,0.1-4.6,2.1-4.8l0.8-0.1l0.1-0.1c0.2-0.1,0.3-0.4,0.3-0.8c0-0.1-0.1-0.6-0.4-0.8l-0.1,0l-0.1,0c-1.9,0.1-3.3,0.1-4.7,0.1
		c-1.7,0-3.2,0-4.9-0.1l-0.1,0l-0.1,0c-0.3,0.2-0.4,0.6-0.4,0.8c0,0.3,0.1,0.6,0.3,0.8l0.9,0.1c2.1,0.2,2.2,0.5,2.2,4.8v4.6
		c0,1,0,1-1.7,1h-11.5c-1.7,0-1.7,0-1.7-1v-4.6c0-4.3,0.1-4.6,2.1-4.8l0.8-0.1l0.1-0.1c0.2-0.1,0.3-0.4,0.3-0.8
		c0-0.1-0.1-0.6-0.4-0.8l-0.1,0l-0.1,0c-1.8,0.1-3.2,0.1-4.7,0.1c-1.1,0-2,0-3-0.1c-0.6,0-1.3,0-2.1-0.1H175l-0.1,0
		c-0.3,0.2-0.4,0.6-0.4,0.8c0,0.4,0.1,0.6,0.3,0.8l0.1,0l1.1,0.1c1.8,0.1,2.1,0.5,2.1,4.8v14.5c0,4.2-0.1,4.4-2.1,4.7l-0.8,0.1
		l-0.1,0.1c-0.2,0.2-0.3,0.6-0.2,0.9c0.1,0.3,0.2,0.5,0.4,0.6l0.1,0h0.1c0.6,0,1.1,0,1.6-0.1c1,0,1.9-0.1,3.1-0.1
		c1.5,0,2.8,0,5.1,0.1h0.1l0.1,0c0.3-0.1,0.4-0.5,0.4-0.8c0-0.3-0.1-0.6-0.3-0.8l-1.3-0.2c-1.9-0.2-2.2-0.4-2.2-4.7v-5.7
		c0-1,0-1,1.7-1h11.5c1.7,0,1.7,0,1.7,1v5.7c0,4.3,0,4.4-2.2,4.7l-0.9,0.1l-0.1,0.1c-0.2,0.2-0.3,0.6-0.2,0.9
		c0.1,0.3,0.2,0.5,0.4,0.6l0.1,0h0.1c1.9-0.1,3.3-0.1,4.9-0.1c1.6,0,3,0,4.9,0.1h0.1l0.1,0c0.3-0.2,0.4-0.6,0.4-0.8
		c0-0.3-0.1-0.6-0.3-0.8l-1.1-0.2C200.9,289.3,200.8,289.1,200.8,284.8 M167.7,263.3l0-0.1l-0.1-0.1c-0.2-0.3-0.6-0.3-0.7-0.3
		c-0.1,0-0.2,0-0.4,0.1l-0.1,0l-0.1,0.1c-0.5,0.9-0.7,1-2.9,1h-16.7c-1.8,0-2.6-0.1-2.8-1l0-0.1l-0.1-0.1c-0.1-0.1-0.3-0.2-0.6-0.2
		c-0.1,0-0.4,0-0.6,0.1l-0.1,0.1l0,0.1c-0.3,1.6-0.9,4.2-1.5,6l0,0.1l0.1,0.1c0.2,0.5,1.1,0.7,1.5,0.4l0.1,0l0-0.1
		c0.4-0.9,0.8-1.8,1.7-2.7c0.9-0.8,2.9-0.9,4.7-0.9h2.2c0.9,0,0.9,0,0.9,1v18c0,4.4-0.2,4.6-2.2,4.7l-1.5,0.1l-0.1,0
		c-0.2,0.1-0.4,0.4-0.4,0.8c0,0.3,0.1,0.6,0.4,0.7l0.1,0h0.1c2.5-0.1,4-0.1,5.6-0.1c1.6,0,2.9,0,5.3,0.1h0.1l0.1,0
		c0.3-0.1,0.4-0.5,0.4-0.8c0-0.3-0.1-0.6-0.3-0.8l-1.4-0.2c-2-0.2-2.1-0.4-2.1-4.7v-18.1c0-0.4,0-0.8,0.1-0.9
		c0.1-0.1,0.5-0.1,0.8-0.1h2.9c2.2,0,3.6,0.3,4.5,1c0.4,0.3,0.7,1.3,0.9,2.7l0,0.1l0.1,0.1c0.1,0.2,0.4,0.3,0.7,0.3
		c0.4,0,0.7-0.2,0.8-0.4l0-0.1l0-0.1C167,268.2,167.3,264.9,167.7,263.3 M140.3,347.1c0,12.5,6,21.3,13.7,26.6
		c7.1,4.7,15.4,6.5,24.1,6.5c6.2,0,13.2-1.5,15.3-2.2c1.1-0.4,2.2-0.8,3.4-1c1.5-1.8,4-8.2,4.6-13.2c-0.4-0.7-1.8-0.9-2.5-0.4
		c-2.2,5.7-7.7,13.8-20.2,13.8c-15.9,0-28.7-11.2-28.7-31.5c0-20,12.6-29.4,27.4-29.4c14,0,18.4,7.5,19.8,14.1
		c0.7,0.6,2.1,0.5,2.6-0.2c-0.8-5.9-1.3-12-1.4-14.2c-0.9,0.1-1.5-0.1-2.7-0.4c-4.5-1.3-11.9-2.3-17.1-2.3
		c-10.1,0-19.1,2.7-26.1,8.2C145.1,327.1,140.3,336.3,140.3,347.1 M115.1,330.7l0-67.4c-54.1-5.2-94.9,0-94.9,0s0,67.3,0,67.4
		c4.3,45.7,47.1,51,47.5,50.9C75.3,380.3,111.1,373.1,115.1,330.7 M35.4,347.6c0.9,0.6,1.9,0.8,2.8,1.2c1.2,3,0,6-0.6,4.8
		C36.5,351.4,36,349.6,35.4,347.6 M35.5,314.5L35.5,314.5c-0.2-0.1-6.1,3.7-9.9,1.9c2.9-1.6,12.8-7.9,15.5-9.7
		c1.3,0.3,1.8-0.2,2.2-0.5c-1,0.1-4.5,0.6-2.7-2.5c0.7,2.8,5.5,0.2,7.2-0.2c4.8-1.1,4.8,4,4.4,6.2c-0.2,0.8,1.5,1.4,2.3,1.2
		c-1.4,3.4-3.7,0.2-4,1.5c-0.1,0.5-1.7,0.9-1.7,2.3c0,1.8,0.7,0.8,0.8,2.2c0.1,1.3-0.6,0.3-0.4,1.8c0.2,2.3,4-0.3,5.6,0.3
		c0.8,0.3,1.3,1,2.1,0.9c0.2-0.2,0.1-1.1,0.1-1.4c-0.1-0.7-1.4-0.8-2.1-1.8c-0.5-0.9,0.6-3.5,1.3-4.3c0.9,4.3,5,3,5.6,7.5
		c0.4,1.3-1.4,2.7,0,4.8c-1.1,1-2.4,6-0.1,8.3c-0.4,1.1-0.9,3.5,1.1,4.9c-0.7,1.4-0.5,3.2,0.1,5c-1.2,0-1-7-8.4-7.2
		c-0.2-0.1-0.2,0.8,0,1.2c0.9,1.6,2.1,1.5,1.8,5.2c-0.1,1.3-0.8-0.2-1.2-0.6c-0.9-0.8-1.6-0.9-2-3.5c-3,2.4-2.7,5.2-2.5,6.7
		c0,0-0.7-1.8-1.4-3.7c0-0.1,3.1-3.9,3.6-4.7c6.3-11.3-4.1,3.7-4.1,3.6c-0.6-1.3-1-2.4-1.4-2.8c0.1-0.2,1.8-2.1,2.6-3.7
		c4.9-10.1-2.9,3.4-3.2,3.1c-0.6-0.5-1.1-1.2-1.4-1c-0.1,1.6-0.5,1.3-0.3,2.9c-0.8,1.1-2.6,2.8-3.8,3.6c0,0-0.3-2.8-0.2-2.9
		c0.6-0.7,3-3.3,3.5-4.1c8-12.5-3.7,3-3.8,2.9c-0.1-0.5-0.7-1.3-1.4-2c0,0,2.6-3.5,3.2-4.8c4.8-10-3.9,4.4-4,4.4
		c-0.2-0.1-0.2-0.1-0.5-0.2c-0.2-0.1,0.3-2.9,0.6-4.6c0.7-3.3-1.1-0.6-1.6,4.6c-0.5,0.1-1.5,0.2-2,0.6c0.3,1.4,0.6,0.3,1.2,1.7
		c0.7,1.6-1,4.3,0.5,6.2c0.6,0.7,0.6,0.6,0.5,1.1c-0.9-0.1-1.4-0.1-2,0.7c-1.1-5-1.1-7.5-0.8-12.6c0.1-2.3,0.9-5.9,0.5-5.9
		c-0.3-0.1-5.6,13.5-6.9,16.2c-2.2-0.8,1.4-12.5,6-18.2c0.4-1.8-2.4,1.8-4.1,3.3c-1.6,1.3-3.5,3.1-5.7,2.5c2.8-2.9,9.1-8.4,9.8-9.7
		c0.6-1.2-4.3,3.6-9.5,1.8C27.6,321.2,35.4,317.2,35.5,314.5 M44.8,340c0,1.2-0.1,2.2,0.3,3.4c0.6,1.9,0.3,1.3-0.5,0.7
		c-0.6-0.7-1.2-1.3-1.5-2.1C43,341.4,43.4,341.4,44.8,340 M57.3,309.4c-0.8-1.3,0.9-2.5,0.9-2.5c0,3.6,4.6,1.1,7,2.3
		c0.6,0.3,1,0.8,1.2,1.3C63.8,308.7,59,312.3,57.3,309.4 M30.1,280.5c-4.1,0-4-6.2,0-6.2C34.1,274.3,34.1,280.5,30.1,280.5
		 M30.1,292.8c-4.2,0-4.2-6.2,0-6.2C34.1,286.7,34.2,292.8,30.1,292.8 M37.9,279.5h-3.6V276h3.6V279.5z M37.9,291.8h-3.6v-3.5h3.6
		V291.8z M67,297.9c0,0-3.8-2-8.2-2.3c-4.3-0.3-12.9,3.1-19.5,2.7v-29.1c0,0,7.6,1,10.7-0.2c10.6-4.1,17.1,0.5,17.1,0.5V297.9z
		 M74.3,302.7c0.2,1.1-0.8,1.4-0.8,1.4c1.6,0.4,2.3-0.6,2.7-1.2c0.6,2.5-1.9,2.7-2.7,2.8c0,0,1.3,0.4,1.4,1.2c0.2,2.1,1.5,2,1.8,1.8
		c-0.1,0.3-0.5,1.6-2,0.4c-0.3,0.3,0.4,0.7,0.6,1.7c0.2,1.3,0.1,2.6,1.7,3.4c-1,0.8-2.1-1.2-2.2-1c-0.1,0.3,1.3,1-0.3,4.7
		c-0.7-0.4-0.3-0.3-1.2-1.3c-0.6-0.5-0.9-0.7-0.4,0.2c0.9,1.2,1.2,3.8,0.8,4.5c-0.8-0.3-0.6-0.9-1.5-1.8c-0.1,0.4,0.3,2.1,1.2,3
		c1.6,1.5,2.2,3.2,2.2,3.6c0.1,1.3-0.3,3.1-0.4,4.8c-0.8-0.1-1.4-2.3-1.6-2.2c-0.2,0.1,0.1,2.2,1.6,3.5c0.7,2.1,0.4,3.2,0.2,3.2
		c-0.2,0.1-1-2.1-1.5-1.7c2.1,5.3,0.6,7.1,0.1,8.8c-0.4-1.7-0.6-2.9-1.2-4.8c-1.1,0.9-1.4,2.2-2.8,3.4c0-2.2-1.3-7.4-2.2-8.6
		c0-0.1-1.8,4.7-2.6,6.8c-1,2.7-1.2,6.1,0,8.8c-2.6-3.7-2.8-10.5-0.6-11.4c0.2-0.5-0.1-2.1-0.6-1.9c-0.1,0.8-0.1,1.4-0.7,2.2
		c-1.7-0.5-0.9-2.6-0.8-3.3c2.2-2.6,0.8-3.3,0.7-3.2c-0.2,0.6-0.4,1.3-1.1,1.6c-1.4-2.4-0.5-6.2,2.2-9.1c0.1-1.1-1.2,0.8-2.1,0.7
		c-0.2-2,0.5-5.6,4.3-5.7c-0.7-0.2-1.1-0.3-1.3-1c1.1-0.2,4.7-0.4,4.2-3.3c-0.3,0.3-0.5,0.9-1.4,1.4c-0.6,0.4-1.3,0.4-1.7-0.1
		c1.7-0.6,1.1-2.6-1.1-2c-0.7,0.2-1.6-0.5-1.7-1.3c0.5,0.5,1.5,0.1,2-0.2c2.4-1.6,3.9,0.7,4.3,1.2c0.1,0,1.1-2.3-2.4-2.9
		c-0.3-0.8-1.1-2.2-3.5-2.1c-0.8-2.7-3.1-1.4-3.1-0.1c-2.5-1.8,0-4.2,1.1-4.5c0.7,0.1,0.5,2.3,1.8,1.9c0.3-0.1-1-1.5-0.5-2.2
		c1.1-0.6,1.1,0.8,1.7,0.3c0.3-1,1.4-1.5,2.3-1.6C69.8,301.2,71.8,304,74.3,302.7 M97.3,298.4c-5.6,0.4-17.1-2.8-20-2.8
		c-6,0-9,2.4-9,2.4s0-27.4,0-28.4c0,0,7.9-3.7,13.7-1.6c7.1,2.6,15.3,1.5,15.3,1.5V298.4z M104.6,287.2c3.1-0.4,3.5,3.2,3.5,3.2h0
		c-0.8-0.6-2.3-0.9-3.3-0.2c-3.4,2.2-6.5,2.2-6.5,2.2v-5.5C98.3,286.8,99,288,104.6,287.2 M108.2,279.6c0-0.2-0.1-0.4-0.1-0.8
		c-0.1-0.6-1.7-0.9-2.8-0.4c-1.6,0.7-5.5,2.9-6.9,2.5v-5.5c3.5,1.5,4.9,0.1,6,0.1c3.5,0,3.7,3.3,3.7,3.3
		C108.2,279.2,108.2,279.4,108.2,279.6 M104.3,336.8c-1,0.3-3.8,1.4-4.4,2.4c0.3-5.9-1.6-11.7-2.2-13.1c-1.2-2.7,0.5,6.3,0.6,8.4
		c0,0.1-9.8-12.6-3.9-2.8c1.5,2.5,3.9,4.2,3.9,4.2c0,1.8-0.1,3-0.4,4c-0.6,0.5-13.3-16.9-6.3-4.9c0.9,1.5,6,6,5.9,6.1
		c-0.3,0.7-0.9,1.7-1.7,2.4c-0.1-0.1-2.9-2.2-2.9-2.3c-0.2-1.3-0.2-2.6-1.9-1.7c0,0-6.3-7.3-3.4-2.2c1.3,2.2,2.1,2.5,2.4,2.9
		c0,0-1,1.3-1.3,2.7c-0.1,0.6-5.4-5.9-3.3-1.8c0.7,1.3,3.1,2.7,3.1,2.8c-0.2,0.8-0.5,1.7-0.8,2.2c-0.3,0.7-5,4.4-5,4.4
		c0,0,0.9-2.9,2.9-4.4c1.1-0.8,1.1-0.6,1.9-1.1c0-0.4-0.4-1.1-1-1.3c-0.7-0.2-2.9,0.2-2.9,0.2c0.2-1.1-0.8-3.5-0.7-6.1
		c-0.8,0.1-2.3,1.4-2.6,2.1c-0.3,4.3-1.2,3-2.1,6.1c-1-1.3,0.1-3.2-0.9-4.4c-1.3-1.7-1.5-2.8-1.7-4.9c0.3-0.2,1.6-1.6,0.4-4.7
		c-0.2-4.8,1.9-6.6-1.9-10c0.3-0.1,0.6-2.5,0.6-2.5c2.8,1.5,2.3-1.7,3.4-2.4c1.7-1,1.4-2.1,0.6-3.4c5,1.4-0.2,4.8,2,4.9
		c1.6,0.1,2.7-0.4,3.4-1.5c0.8-1.2-0.1-1.9,2-3.8c0.2-0.2,0.8-1.4-0.9-1.8c-0.4-0.1,0-1.5,0-1.5c-1.3,1.1-1.8,2.7-3.9,1.7
		c-1.1-0.5-1.8,0-2.3,0.2c0,0-0.2-0.9,0.7-1.2c2.4-0.8,3-1.7,2.8-2.3c-0.3-1.2-0.4,0-0.3-1.3c0-0.5,0.6-1.2,1.1-1.8
		c1.6-1.9,2.7-1.2,3.1-1c0.9-0.7,1.1-0.7,2-1c1.5-0.6,4.7,0.4,6.5,1.2c0.9,0.4,1.9,0.6,2.9,0.4c0,0.5-0.4,0.8-0.7,0.9
		c-0.6,0.2-1.2,0-1.2,0.4c0,0.2,0.8,0.3,1.3,0.4c2.7,0.7,6.1,3.1,3.9,2.6c-0.3-0.1,1.6,1.4,3.1,3.3l5.1,4.9c-0.2,0.3-2,0-7.7-5.3
		c-0.8,0.7,6.9,6.5,10,12.6c-0.3,0.2-4.2-1.2-5.6-2.7c-2.2-2.3-4.7-8-5.7-7.2c-0.1,0,4.2,6.7,6.3,10.7c1.1,2,2,4.9,2,7
		c0.3,10.7-1.3,9.9-1.3,9.9c-2.5-8.4-3.7-18.2-7.3-22.7C98.7,318.4,104.1,328.1,104.3,336.8 M93.2,346.4c-1.1,1-1.9,1.3-1.6,0.9
		c0.3-0.6,0.5-1,0.6-1.4C92.3,345.7,93.2,346.4,93.2,346.4 M92.5,345.1c0.2-0.9,0.2-1.5,0.4-2.3c0.1-0.3,0.1-0.3,0.1-0.6
		c0-0.1,2.4,2,2.6,2.1c-0.6,0.8-1.1,1-1.7,1.6C93.4,345.5,92.5,345.2,92.5,345.1 M100.4,347.8c-3.4,3.4-8.5,2.1-12.5,3.9
		c-3.6,1.3-6.3,4.7-10.1,5.5c-1.1,0.4-1.3,0.9-0.6,0.9c0.4,0,2.7,2.4,6.4,0.5c1.2-0.6,5.1-2.8,5.7-2.9c-2.1,2-3.1,3.8-5,4.8
		c-1.1,0.6-5.8,2.3-10.4,1.4c-2.1-0.4-3.6,1.5-3.1,1.5c1.1-0.3,2.3-0.1,3.1,0.8c1.3,1.1,3.3,2.4,5,0.4c0.6-0.6,3.2-2,5.7,0.5
		c-2.7-0.1-2.4,4.6-7.4,4.1c-1.9,0-6-4.3-7.2-3c-2.1,2.3,4.5,4.6,1.6,7.5c-2.6,2.7-5.6-2.1-5.6-2.1c1.6,0.7,4.6,1.1,3.2-1.5
		c-0.5-1-1.5-2-1.5-3.9c-0.2-1-6.1,7.6-10,3.7c-1.5-1.5-4.6-4.8-7.4-6.1c7.4-0.6,8.5,2.3,8.9,2.8c2.4,3.2,4.6,0,5.1-0.6
		c0.8-0.9,1.9-2.1,1.5-2.3c-2.9-1.4-6.2-1.7-8.6-0.5c5.2-7.2,9.3-0.5,9.3-0.5c0.6,0.4-0.2-4.3-5.3-4.5c-3.2-0.2-6.1,2.8-8.3,2.8
		c-1.8,0-7.3-3.7-8.6-7c3.2,2.4,7.3,3.8,9.8,2.3c4.8-2.9,10.8,1.5,11.1,0.9c-1.3-1-4.4-5.1-12.6-2.8c-3.2,1.8-4.5-1.4-6.5-1.4
		c3.3-3,5.6-1.5,6.8-1.4c0.3,0-1.4-1.4-2.6-1.5c-9.1-0.9-14.9-3.4-14.9-3.4c0,0,0.8-1.8,4.7-0.5c0,0-3.5-2.2-3.5-4.9
		c0.1-1.7,0.9-3.5-0.4-4.9c5.3-0.2,1.5,7.2,5.2,9c0.1,0-1.1-1.8,0.6-3.1c0.8,2.2,2.7,3.3,4,3.6c0.3-0.2,0.7-0.8,0.7-0.8
		c-1.4-2.3-1.6-5-1.2-8.1l0.1,0c0.3,0,0.8,1.1,1.2,1.8c0.8,1.7,0.8,4,2.3,6c0.9,1.1,1.4,2.2,2.1,2.7c0.3-0.8,0.1-2.1,0-2.4
		c-0.2-1.3-1-3.4,1.2-5.4c1,2.9,2.4,2.1,2.5,3.4c0.3,1.9,0.2,1.6,0,3.1c0.1,2.1,2,2.6,3.6,3.9c3.7,2,6.2,3.1,7.8,5.7
		c0.8-4.4-11.1-5.3-9.5-13.7c-0.2-3.4,0.4-3.7-2-5.7c4.8,0.1,7.3,7.9,7.6,9.4c0.5,2.6,2.1,2.8,4.2,6.2c0.3,0.1-3.9-9.1,1.1-17
		c0,0,1.7,4.1,0.9,6.8c-0.5,1.6,0,3.4,0.1,4.4c0.1,1-0.2-3.7,3.4-6.2c0.2,1.8,2,4.6,0.3,7.6c-2,3.6-2.1,2.3-2.2,6.8
		c0.2-0.1,0.7-3.1,2.1-4.8c2.9-3.6,0.8-5.6,3.6-8.7c0.2,1.6,0.6,0.9,0.8,2.3c0.4,3.1-2.9,6.6-2.2,6.5c0.8-0.1,2.2-0.8,2.6-3.2
		c0,0,1.2,2.2,0.1,2.9c-2,1.3-2.4,2.7-2.1,4.3c1.6-1.9,3.8-4,3.4-6.7c0.2-1.6,2-2.3,2.3-6.1c0.1-0.6,0.7-1.4,1.3-1.7
		c-0.3,2.1,1.4,4.4-0.5,7c0.4,0.2,2-2,4.4-1.2c-4.7,0.9-3.3,5.9-6.9,8.3c-1.1,0.7-0.9,1.5-1.2,1.6c3.2-0.2,5.7-4,6.1-4.3
		c3.2-2.2,3.9-2.5,5.2-6.1c0.5-1.3,0.1-1.9,1.9-3.8c0.8,1.8-0.4,5.5-0.6,6.3c-0.6,1.7-2.6,3.2-2.2,3.2c8.7-3.8,8.5-6.4,10.6-9.1
		c0.6-1,3.7-2.9,4.8-3c-0.3,0.6-1.5,1.5-1.5,2.6c-0.1,1.9-0.7,3.1-1.7,4.6c0.5,0.7,1.6-1.3,2.6-0.3
		C102.1,345.3,101.5,346.9,100.4,347.8 M101.9,347.3c-0.5,2.5-1.4,4.9-2.9,7c-1.1,1.5-1.5-1.5-0.6-4.3
		C99.7,349.5,101,348.4,101.9,347.3 M95.3,283.3c-0.2-0.1-0.6-0.2-0.9-0.2s-0.4,0.4-0.1,0.5c0.2,0.1,0.6,0.1,1,0.1
		C95.5,283.8,95.5,283.4,95.3,283.3 M94.3,284.5c0.2,0.1,0.6,0.1,1,0.2c0.2,0,0.2-0.4,0-0.5c-0.2-0.1-0.6-0.2-0.9-0.2
		C94.1,284.1,94,284.4,94.3,284.5 M94.3,290c-0.2-0.2-0.7-0.7-1.2-1c-0.3,0.2-0.8,0.6-1.2,0.8c-0.3-0.3-0.6-0.7-1.1-1.1
		c-0.3,0.2-1.2,1-1.6,1.3c0.6,0,1.4,0.2,1.4,0.7c0,0.4,0,3,0,3.5c0.3,0.1,0.7,0,1.2,0c0-0.4,0-3.4,0-3.7c0.2-0.1,0.4-0.2,0.5-0.3
		c0.2,0.1,0.8,0.8,1.1,1c0.2-0.2,0.8-0.7,1.1-1C94.8,290,94.5,289.8,94.3,290 M92.8,285.7c0.3-0.6,0.8-1.5,0.8-2.2
		c0-0.9-0.6-2.2-1.8-2.6c-1.6,0.6-2.6,1.8-2.6,3.4c0,0.9,0.7,2.7,2.3,2.7C91.8,286.5,92.3,286,92.8,285.7 M91.8,286
		c-0.3-0.1-1.4-1-1.6-1.6c-0.3-0.9-0.3-1.8,0.6-2.4c0.7,0.3,1.6,1,1.6,1.6C92.5,284.5,92.2,285.5,91.8,286 M91.7,279.3l1.2-1.3
		c0,0-0.5-0.4-0.8-0.8c0-0.3,0-2.8,0.1-2.9c-0.9-0.8-1.5-0.9-1.9-0.8c-0.7,0.1-1.4,1-1.7,1.3c-0.2,0.2-0.1,0.5,0,0.7
		c0.1,0.1,0.3,0.2,0.5,0.3c0,0-0.1,0-0.1-0.1c-0.3,0.3-0.8,1.2-0.8,1.8c0,0.6,0.6,1.5,0.9,1.8c0.4-0.3,1-0.8,1.9-1
		C91.2,278.8,91.4,279.1,91.7,279.3 M91,276.4c-0.6-0.2-1.7-0.7-2.1-1.1c-0.1-0.1-0.1-0.1,0-0.3c0.3-0.4,0.6-0.7,0.8-0.7
		c0.2,0,1.3,0.6,1.3,0.9C91,275.4,91.1,275.9,91,276.4 M91.1,278.1c-0.3,0-0.6,0.1-0.9,0.3c-0.3-0.3-1.1-1.2-0.5-2.3
		c-0.1-0.1-0.2-0.1-0.2-0.1c0.5,0.3,1.2,0.6,1.7,0.7c0,0.4,0,0.8,0,1C91,277.8,91,278,91.1,278.1 M87.7,272.9c-0.3,0-2.1,0-2.2-0.1
		c-0.1-0.4-0.2-0.9,0.1-1.5c0.2-0.3-0.1-0.5-0.3-0.1c-0.1,0.3-1,1.6-2,2c-0.5,0.2,0.6,0.6,0.5,0.6c0,1.2,0.2,3,0.4,3.8
		c0.2,0.4,0.7,1.1,1,0.9c0.2-0.1,0.7-1.1,0.9-1.2c0.3-0.2,0-0.6-0.2-0.4c-0.2,0.2-0.5-0.1-0.5-0.3c-0.1-0.2-0.3-2.9-0.2-3
		c0,0,2.2-0.3,2.4-0.3C87.9,273.4,87.9,272.9,87.7,272.9 M81.8,277.8l0.9-1.2c-0.7-0.1-0.9-0.2-1.4-0.7l0-2.9l-0.9-0.9l-0.3,0
		l-1.4,1.3c-0.1,0.2,0.2,0.2,0.4,0l1,0.6l0,2.8c0.1,0.3,0.4,0.7,0.8,1.1H81.8z M81,271.4l0.5-0.4v-0.7l-0.7-0.7l-0.7,0.6l0,0.8
		l0.4,0.4H81z M78.7,270.5c-0.4,0-1.7,0.1-2.1,0.1c-0.5,0.1-0.5,0.3-0.1,0.3c0.4,0,0.5,0.1,0.7,0.6c0.2,0.5-0.7,2.9-1,3.4
		c-0.3-0.4-1.2-2.5-1.2-2.8c0-0.2,0.4-0.4,0.6-0.5c0.4-0.1,0.4-0.4,0.1-0.4c-0.8-0.1-3.4-0.3-3.9-0.4c-0.3,0-0.5,0.4-0.1,0.4
		c0.4,0,0.9-0.1,1.3,0.6c0.5,0.8,2.2,4.4,2.6,6c0.2-0.3,1.9-5.2,2-5.8c0.1-0.5,0.5-1,1-1.2C79.1,270.8,79.1,270.6,78.7,270.5
		 M70.7,282.4c0,2,0.8,2.2,1.8,2.7c0.9,0.5,2.4,0.4,3.5,0.1c0.4-0.1,0.6-0.1,0.6,0.2c0,0.2,0.3,0.2,0.3,0c0-0.2,0-1.9,0-2.1
		c0-0.2-0.3-0.2-0.3,0c0,0.3,0,0.4-0.3,0.8c-0.8,1.1-2.7,1.1-3.7-0.3c-0.3-0.5-0.7-1.1-0.3-1.2c0.4-0.1,1.6,0.1,2.4,0.2
		c0.5,0,1.6,0.1,1.8,0.2c0.1,0.1,0.3,0.2,0.3,0c0-0.2,0-1,0-1.3c0-0.2-0.2-0.1-0.3,0c-0.1,0.1-1.3,0.3-1.8,0.4
		c-0.5,0.1-2,0.2-2.4,0.1c-0.4-0.1-0.3-0.9,0.1-1.4c1-1.4,3.1-1.3,3.9-0.1c0.3,0.4,0.3,0.5,0.3,0.8c0,0.2,0.3,0.2,0.3,0
		c0-0.2,0-2.3,0-2.4c0-0.2-0.3-0.2-0.3,0c0,0.2-0.3,0.2-0.7,0.2c-0.6-0.2-2.5,0.1-3.4,0.5C71.8,280.2,70.7,281.2,70.7,282.4 M71,286
		c0,0.6,0.2,5.6,0.2,6.3c0,0.4,0.5,0.8,1,1.1c0.2-0.3,0.7-1,1.2-1.3c0.2-0.2,0.1-0.3-0.1-0.3c-0.4,0.2-0.8,0-0.8-0.4
		c0-0.4,0-4.7,0-5.4C72.1,286.1,71.3,286.1,71,286 M75.2,290.1c-0.3,0.3-0.9,1.1-0.9,1.7c0,0.6,0.3,1.2,0.7,1.5c0.6-0.4,1-1,2-1.4
		c0.1,0.5,0.5,0.5,0.9,0.8c0.2-0.3,1.1-1.3,1.3-1.5c0.2-0.2,0.1-0.4-0.2-0.2c-0.3,0.2-0.5,0.1-0.9-0.4c0-0.3,0-2.4,0.1-2.5
		c-0.4-0.4-0.8-1-1.3-1c-0.7,0.1-1.6,1.3-1.8,1.6c-0.2,0.2,0,1.1,0.1,1.2C75.1,290.1,75.1,290.1,75.2,290.1 M75.7,290.5
		c0.4,0.2,0.6,0.1,1.2,0c0,0.4,0,0.7,0,0.9c-0.3,0.2-0.6,0.4-1,0.6C75.6,291.7,75.1,291.5,75.7,290.5 M75.3,288.7
		c0.3-0.4,0.4-0.5,0.6-0.5c0.2,0,0.9,0.5,0.9,0.8c0,0.2,0,0.7,0,1.1c-0.5,0.1-0.9,0.1-1.5-0.4C75.2,289.7,75.2,288.9,75.3,288.7
		 M79.7,287.9c-0.5,0.2,0.6,0.6,0.5,0.6c0,1.2-0.3,3.2,0.2,3.8c0.3,0.4,0.8,0.6,1.2,0.5c0.4-0.2,0.9-0.9,1-1c0.3-0.2,0-0.4-0.2-0.2
		c-0.2,0.2-0.9,0.1-0.9-0.2c-0.1-0.2-0.1-2.9,0-2.9c0,0,0.8,0,1,0c0.2,0,0.2-0.5,0-0.5c-0.3,0-0.9-0.1-0.9-0.2
		c-0.1-0.2,0-1.1,0.2-1.4c0.2-0.3-0.1-0.5-0.3-0.2C81.3,286.7,80.5,287.5,79.7,287.9 M79.9,282.4c0,1.1-0.5,2.3-1.2,2.9
		c1.1-0.3,1.3-1,1.9-1.7c0.3,0.5,1,1.1,1.4,1.4c0.3-0.2,1.2-1.2,1.4-1.5c-0.7-0.2-1.9-0.9-2.3-1.6c-0.3-0.5-0.2-0.8,0.1-1.2
		c0.2,0.3,1.8,1,2.5-0.2c-0.8-0.3-1.4-0.8-1.7-1.2c-0.2,0.2-0.9,0.9-1.3,1.1c-0.1-0.4-0.7-0.9-1.2-0.9c-0.2,0.2-1.4,1.1-1.9,1.4
		c-0.2,0.1-0.1,0.4,0.1,0.4c0.2-0.1,0.6-0.4,1-0.6C79.3,280.9,79.8,281.4,79.9,282.4 M85.2,282.6c0.1-0.7,0.6-1,0.9-1.2
		c0.3,0.3,0.6,0.7,1.1,0.7c0.5,0,0.9-0.2,1.1-0.4c-0.4-0.3-1.3-1.2-1.4-1.4c-0.4,0.2-2.4,1.2-2.5,2.4c-0.2,1.7,0.3,2,1,3
		c0.4,0.5,1.1,0.6,1.4,0.5c0.3-0.2,1.6-1.4,1.7-1.6c0.1-0.1-0.1-0.3-0.2-0.1c-0.2,0.1-0.1,0.2-0.3,0.2c-0.2,0-1.1,0.2-1.6-0.1
		C85.9,284.3,85,283.6,85.2,282.6 M84.3,288c-0.3,0.3-0.8,0.6-1.2,1.1c0.4,0,0.7,0.1,0.9,0.5c0.2,0.4,0,1.9,0.1,2.5
		c0,0.6,0.4,0.7,0.8,1.2c0.5-0.1,1.7-0.6,2.2-0.9c0,0.5,0.6,1,0.9,1.1c0.2-0.3,0.5-0.4,0.8-0.7c-0.3-0.2-0.3-0.3-0.4-0.7
		c-0.1-0.4,0-2.1,0-2.8c-0.3-0.4-0.7-0.9-1.2-1.2c-0.3,0.3-0.7,0.7-1.3,1.2c0.4-0.1,1.1,0.1,1.2,0.4c0,0.4,0.1,1.3,0,2
		c-0.1,0.7-2,0.4-2-0.1c0-0.5,0.1-1.9,0.1-2.5C84.9,288.6,84.8,288.4,84.3,288 M71.8,304.9L71.8,304.9c-1.1-0.2-1.9-1-2.9-1.4
		c-1.4-0.5-2.8,0.5-2.8,0.7c0,0.4,0.4,0.6,1.5-0.1c-0.9,1,0.1,1.8,0.1,1.8c-0.4-0.1-0.9-0.2-1.2-0.4c-0.1,0.4,0.4,0.5,0.7,0.7
		C69,307,70.2,305.2,71.8,304.9 M68.7,305.9c0,0,0.5-0.5,0.5-0.9c0-0.5-0.5-0.9-0.5-0.9c0.4,0.1,1.4,0.7,1.8,0.9L68.7,305.9z
		 M58.6,291.9l0.5-0.6c-0.6-0.1-0.3-0.1-0.6-0.4l0-2.4l-0.8-1.1l-0.3,0l-1.2,1.1c-0.3,0.3,0,0.4,0.3,0.1l0.8,0.4l0,2.6
		c0.1,0.3,0.3,0.4,0.7,0.8L58.6,291.9z M58.9,283.4c0.4,1.2,1.4,1.5,2.1,1.6c0.2-0.4,0.6-1,0.8-1.3c0.3-0.4,0-0.7-0.2-0.2
		c-0.2,0.4-1.1,0-1.4-0.4c-0.5-0.4-0.7-1.5-0.4-1.9c0.4-0.4,0.9-0.2,1.6-0.2c0.5,0,0.5-0.4,0.6-0.6c-0.2-0.1-0.5-0.3-1-0.5
		c-0.4,0.3-1.1,0.9-1.4,1.1C59.2,281.3,58.5,282.3,58.9,283.4 M60.6,289.9c-0.4,0.5-0.8,1-0.8,1.6c0,0.6,0.2,1.2,0.8,1.5
		c0.5-0.4,1.2-0.9,1.9-1c0.3,0.4,0.8,0.7,1.1,0.9c0.2-0.3,0.9-0.8,1.1-1c0.2-0.2,0-0.4-0.2-0.2c-0.1,0.2-0.6,0.1-0.7-0.2
		c0-0.3-0.2-2.9-0.1-3.1c-0.4-0.4-1.1-1.4-1.5-1.4c-0.7,0.1-1.6,1-1.9,1.3C60.2,288.6,60.4,289.7,60.6,289.9
		C60.6,289.8,60.6,289.8,60.6,289.9 M62.3,290.1c-0.5,0-0.9-0.1-1.5-0.6c-0.1-0.1-0.2-0.7-0.1-0.9c0.2-0.4,0.2-0.5,0.4-0.5
		c0.2,0,1.2,0.6,1.1,0.9C62.4,289.2,62.4,289.7,62.3,290.1 M61,290.2c0.5,0.3,0.7,0.3,1.3,0.2c0,0.3,0,0.6,0,0.7
		c0,0.1,0.1,0.2,0.1,0.4c-0.3,0.1-0.7,0.2-1,0.3C61.1,291.6,60.2,290.9,61,290.2 M64.8,285.2l0.5-0.6c-0.6-0.1-0.6-0.1-0.9-0.4
		l0-2.8l-0.5-0.8l-0.3,0l-1.2,1.1c-0.3,0.3,0,0.4,0.3,0.1l0.6,0.4l0,2.6c0.1,0.3,0.3,0.4,0.7,0.8L64.8,285.2z M63.8,275.4
		c-0.2,0-0.6,0.4,0.8,0.6C64.9,276,65.2,275.4,63.8,275.4 M63.8,274.5c-0.2,0-0.6,0.7,0.8,0.6C64.9,275.1,65.1,274.6,63.8,274.5
		 M64.1,278.9l-0.6-0.7l-0.6,0.6l0,0.8l0.4,0.4h0.4l0.5-0.4V278.9z M62.8,272.9c-0.4-0.3-0.9-1-1.9-1c-1,0-2.2,0.9-2.6,1.5
		c-0.5,0.8,0.1,1.5,0.8,2c-0.4,0.4-1,0.9-1.5,1.4c0.2,0.2,1.4,0.8,2.1,0.8c1,0,1.9-0.5,2.5-1c1-0.8,0.7-1.7-0.4-2.3
		c-0.1-0.1-0.2-0.1-0.3-0.1C62.1,273.5,62.7,273.1,62.8,272.9 M60.2,275.1c0.4,0.2,0.7,0.3,1.1,0.5c0.6,0.3,0.3,0.9-0.3,1.2
		c-0.6,0.3-1.7-0.5-1.9-0.8C59.3,275.8,59.7,275.4,60.2,275.1 M61.3,273.6c-0.1,0.1-0.4,0.3-0.6,0.5c-0.2,0-0.3,0-0.5,0
		c-0.5-0.1-0.8-0.5-1-0.8c-0.2-0.3,0.4-0.6,0.7-0.6C60.2,272.8,60.9,273.2,61.3,273.6 M57,275.9c-1.5,0.4-2.3-0.8-2.4-1.2
		c0.6-0.6,1.7-1.7,2.3-2.2c-0.4-0.4-0.6-1-1.4-1.1c-0.7,0-2.2,0.8-2.5,2.7c-0.3,1.9,1.5,2.9,2.9,2.9c0.5,0,1-0.6,1.3-0.7
		C57.9,276,57.7,275.7,57,275.9 M54.4,274.3c-0.4-1.3-0.2-1.7,0.5-2.3c0.2,0.4,0.6,0.7,0.9,0.9C55.4,273.3,54.7,274.1,54.4,274.3
		 M52.7,273.2c0.3-0.3,0-0.4-0.2-0.2c-0.2-0.2-0.6-0.7-0.9-0.9c-0.3,0.2-0.8,0.6-1.2,0.7c-0.3-0.3-0.6-0.3-1.1-0.7
		c-0.3,0.2-0.9,0.7-1.2,1.1c0.6,0.2,1,0.2,1.1,0.7c0,0.4,0,2.9,0,3.4c0.3,0.1,0.7,0,1.1,0c0-0.4,0-3.5,0-3.9
		c0.2-0.1,0.3-0.2,0.4-0.3c0.2,0.1,0.6,0.7,0.9,0.9C51.8,273.8,52.4,273.4,52.7,273.2 M47.8,279.8c-0.7,0.1-1.6,0.8-1.9,1.5
		c-0.1,0.3,0.1,1.2,0.2,1.3c0.1,0.1,0.2,0.1,0.2,0.2c-0.4,0.4-0.9,0.8-0.8,1.4c0,0.6,0.5,1.1,1.1,1.4c0.3-0.5,0.8-0.8,1.4-0.9
		c0,0.5,0.2,0.8,0.5,1c0.2-0.2,1.1-1,1.3-1.2c0.2-0.2,0-0.4-0.2-0.2c-0.1,0.1-0.4-0.1-0.5-0.2c0-0.3,0-2.9,0.1-3.1
		C48.6,280.6,48.2,279.7,47.8,279.8 M47.9,282.5c-0.7,0.5-1,0.5-1.5-0.1c-0.3-0.3-0.2-0.9-0.1-1.1c0.2-0.4,0.6-0.7,0.8-0.7
		c0.2,0,0.8,0.7,0.7,1.1C47.8,281.8,47.8,282.1,47.9,282.5 M47.9,283.8c0,0.1,0,0.3,0,0.4c-0.1,0-0.3,0.1-0.5,0.2
		c-0.3-0.2-1.6-0.7-0.7-1.3c0.5,0.3,0.7,0.1,1.2-0.2C47.9,283.3,47.9,283.7,47.9,283.8 M47.3,278.1c-0.1-0.1-0.3-0.3-0.3-0.5
		c0-0.2,0-1.8,0-2c0-0.2-0.4-0.2-0.4,0c0,0.3,0,0.8-0.2,1.2c-0.7,1.1-2.1,1.5-3,0.2c-0.3-0.4-0.4-1.1-0.4-1.6
		c-0.1-0.6,0.4-1.5,0.5-1.6c1.2-1.6,2.9-0.4,3,0.2c0.1,0.4,0.2,1,0.2,1.2c0,0.2,0.4,0.2,0.4,0c0-0.2,0-2.6,0-2.8
		c0-0.2-0.3-0.2-0.3,0c0,0.4-0.2,0.4-0.5,0.3c-0.6-0.2-2-0.5-2.8,0c-0.7,0.4-1.8,1.4-1.7,2.6c0,2,0.8,2.1,1.6,2.7
		c0.8,0.5,1.9,0.2,3-0.1c0.4-0.1,0.5,0.1,0.7,0.4C47.3,278.8,47.5,278.5,47.3,278.1 M41.8,280.9c-0.7,1-1.1,2.7,0.1,3.7
		c0.6,0.5,1,0.8,2.2,0.6c0.2-0.5,0.3-0.6,0.7-1.1c-0.8,0.1-1.4,0-2-0.5c-1.2-0.9-0.8-2.4-0.5-2.9c0.6-0.9,1.5,0.4,1.7,0.6
		c0.2-0.3,0.6-0.6,0.9-0.9c-0.4-0.5-0.6-0.9-0.9-1.2C43.4,279.6,42.3,280.2,41.8,280.9 M42.3,290c-0.3,1.9,1.5,3,2.4,3.4
		c0.2-0.4,0.7-1.1,1.1-1.6c0.3-0.4,0-0.5-0.3-0.2c-0.4,0.4-1.6,0-1.9-0.5c0.6-0.4,2-1.7,2.7-2.2c-0.4-0.4-1.1-1.4-1.2-2
		C44.5,287.2,42.6,288,42.3,290 M44.1,288c0.2,0.4,0.7,1.3,1,1.4c-0.4,0.4-1.5,1.1-1.8,1.3C42.8,290,42.5,289,44.1,288 M48,287.3
		c-0.4,0.3-0.7,0.7-1.2,1.1c0.2,0.3,0.7,0.7,0.7,1.1c0,0.5,0,2.8,0,3.4c0.4,0,0.3,0,1,0c-0.1-0.4,0-3.4,0-3.8
		c0.3-0.2,0.3-0.3,0.6-0.5c0.2,0.2,0.7,0.3,0.7,0.6s0.1,1.8,0,2.3c-0.1,0.6-0.1,1.1,0.3,1.8c0.3-0.3,1.3-1,1.5-1.2
		c0.2-0.2,0.1-0.3-0.2-0.2c-0.3,0.1-0.3,0.1-0.3-0.1c0-0.3-0.1-1.9-0.2-2.9c0-1-0.5-1.3-0.8-1.4c-0.3,0.3-0.9,0.7-1.3,1.1
		C48.5,288.3,48.3,287.8,48,287.3 M52.1,284.8c0.3-0.3,0.6-0.7,0.7-0.8c0.3-0.2,0-0.4-0.2-0.2c-0.2,0.2-0.6-0.2-0.7-0.3
		c-0.2-0.2-0.4-2.5-0.3-2.5c0,0,1.5-0.2,1.7-0.2c0.1,0,0.2-0.5,0-0.5c-0.2,0-1.4,0.2-1.4,0c-0.1-0.2-0.2-1.1,0.2-1.8
		c0.2-0.3,0-0.6-0.1-0.3c-0.1,0.3-1,1.7-1.6,2c-0.5,0.2-0.4,0.3-0.1,0.4c0.2,0.1,0.5,0.3,0.5,0.3c-0.1,1.2-0.2,2.6,0.2,3.3
		C51.1,284.7,51.8,285.1,52.1,284.8 M57.1,285.4c-0.2,0.4-0.5,0.7-1,0.9c0.3,0.3,0.7,0.6,1,0.8c0.3-0.4,0.6-0.7,1-1
		C57.7,286,57.3,285.8,57.1,285.4 M54.8,284.1c0.5,0,1.2,0.2,2,0.2c1-0.1,1.8-1.6,1.3-2.8c-0.4-1.1-1.7-0.9-2.5-1.2
		c-0.8-0.2-1.1-0.7-0.3-1.3c1-0.6,2.2,0.4,2.4,0.6c0.2,0.3,0.3,0.3,0.3-0.1c0-0.9-0.1-0.4-0.2-1.3c0-0.3-0.3-0.3-0.3,0
		c0,0.3-0.4,0.2-0.7,0.2c-0.3,0-1.1-0.1-1.8,0.3c-0.5,0.3-1.5,1.1-0.9,2.1c0.3,0.6,2.4,1,2.9,1.4c0.5,0.3,0.6,1.2,0.1,1.6
		c-0.6,0.5-2.2,0.1-2.5-0.2c-0.3-0.4-0.5-0.7-0.5-1.1c-0.1-0.4-0.4-0.4-0.4,0s0.1,1.7,0.2,2.1c0.1,0.3,0.4,0.2,0.4,0
		C54.4,284.2,54.6,284.1,54.8,284.1 M52.7,288.3c-0.4,0.3,0.5,0.7,0.4,0.7c0,1.2-0.1,2.4,0.3,3c0.3,0.4,1,0.6,1.2,0.3
		c0.1-0.4,0.7-1.1,0.9-1.2c0.3-0.2,0-0.4-0.2-0.2c-0.4,0.5-0.7,0.2-1-0.1c-0.2-0.2-0.2-1.8-0.1-1.9c0,0,0.8-0.1,1-0.1
		c0.1,0,0.1-0.5,0-0.5c-0.2,0-1,0-1-0.1c-0.1-0.2,0.1-1.3,0.2-1.8c0-0.4-0.2-0.5-0.3-0.1C53.9,286.5,53.1,288,52.7,288.3"/>
</g>
</svg>
